<svg xmlns="http://www.w3.org/2000/svg" viewBox="0 0 504.115 504.115" style="enable-background:new 0 0 504.115 504.115" xml:space="preserve"><path style="fill:#dcf1f9" d="M410.122 36.321 359.631 7.393a37.164 37.164 0 0 0-7.093-4.064l-.744-.421-.032.063c-13.584-5.522-31.13-3.529-50.271 7.519l-155.518 89.777c-42.76 24.69-77.745 85.287-77.745 134.668v179.558c0 24.08 8.361 41.157 21.847 49.534l-.13.236 56.115 31.795 31.555-54.942 123.876-71.511c42.752-24.69 77.745-85.291 77.745-134.668V90.088l30.886-53.767z"/><path style="fill:#cce6f2" d="m410.122 36.321-54.047-12.678c-2.209-1.607-13.245-1.568-15.762-2.67l-4.009-1.599-7.211-1.343c-13.584-5.522-8.46-18.593-27.601-7.546l-155.518 89.781c-42.76 24.69-77.745 85.287-77.745 134.668v179.558c0 24.08 8.361 41.157 21.847 49.534l-.13.236 56.115 31.795 31.555-54.942 123.876-71.511c42.752-24.69 77.745-85.291 77.745-134.668V90.088l30.885-53.767z"/><path style="fill:#bfd9e8" d="M71.19 209.065c-1.887 8.791-2.962 17.495-2.962 25.868v179.558c0 24.08 8.361 41.157 21.847 49.534l-.13.236 56.115 31.795 31.555-54.942 123.876-71.511c7.263-4.194 14.285-9.492 20.961-15.537L71.19 209.065z"/><path style="fill:#fff" d="M199.423 131.257c-42.76 24.686-77.753 85.291-77.753 134.668v179.562c0 49.377 34.993 69.577 77.753 44.883l155.506-89.777c42.76-24.686 77.753-85.287 77.753-134.668V86.367c0-49.376-34.993-69.573-77.753-44.883l-155.506 89.773z"/><path style="opacity:.1;fill:#5bc0d8;enable-background:new" d="M432.682 86.367c0-49.376-34.993-69.573-77.753-44.883l-155.506 89.773c-42.76 24.686-77.753 85.291-77.753 134.668v179.562c0 49.377 34.993 69.577 77.753 44.883"/><path style="fill:#fff" d="M164.882 504.115h-.008c-28.192 0-46.407-23.012-46.407-58.628V265.925c0-50.523 35.592-112.183 79.344-137.444l155.514-89.777c12.607-7.278 24.769-10.965 36.147-10.965 28.191 0 46.415 23.016 46.415 58.628v179.562c0 50.527-35.6 112.183-79.352 137.444L201.021 493.15c-12.606 7.275-24.761 10.965-36.139 10.965zM389.477 34.15c-10.24 0-21.323 3.399-32.937 10.098l-155.518 89.785c-41.984 24.241-76.146 83.409-76.146 131.891v179.562c0 32.209 15.325 52.216 39.999 52.216h.008c10.24 0 21.315-3.399 32.929-10.098l155.514-89.785c41.984-24.237 76.146-83.409 76.146-131.891V86.367c.004-32.209-15.321-52.217-39.995-52.217z"/><g style="enable-background:new"><path style="fill:#2f3638" d="M280.791 149.985c-58.336 33.686-105.464 115.527-105.279 182.8.154 53.823 30.551 82.018 72.57 73.901a11.81 11.81 0 0 0 1.812-.847c3.919-2.269 5.392-6.345 5.388-9.161-.012-2.907-.114-10.531-.205-20.669-3.958 3.285-7.491 5.754-10.65 7.57-20.287 11.717-24.986-3.332-24.986-3.332-4.852-11.315-11.784-11.047-11.784-11.047-9.2-1.953-.134-7.345.67-7.806.039-.024.055-.032.055-.032 10.575-5.25 16.191 3.23 16.191 3.23 5.305 7.341 12.398 6.152 18.684 2.529 4.97-2.867 9.433-7.259 12.083-10.165.933-8.444 3.651-15.372 6.664-20.161-23.469 10.476-48.156 14.261-48.286-32.421-.035-13.32 4.061-26.589 10.776-38.979-1.075-2.489-4.734-12.745.949-32.851 0 0 .768-.725 2.359-1.646 3.828-2.213 12.449-5.545 26.726-2.631 8.405-7.55 17.428-14.131 26.423-19.361 8.976-5.148 18.007-8.992 26.451-11.169 14.218-19.361 22.812-25.966 26.628-28.172 1.595-.91 2.359-1.075 2.359-1.075 5.805 13.473 2.217 27.916 1.13 31.657 6.794 4.592 10.925 13.107 10.961 26.427.134 46.793-24.548 71.365-48.065 87.946 3.812 1.564 7.223 7.05 7.251 18.412.047 16.317-.067 29.511-.055 33.54.008 2.824 1.461 5.23 5.384 2.962a15.016 15.016 0 0 0 1.91-1.323c41.862-40.346 71.971-103.44 71.818-157.263-.184-67.287-47.623-94.518-105.932-60.863"/></g><path d="M381.218 175.502c-14.1-40.361-53.768-52.449-100.427-25.517-58.336 33.686-105.464 115.527-105.279 182.8.154 53.662 30.377 81.829 72.2 73.953l7.546-13.068c-.039-3.848-.114-10.039-.181-17.66-3.958 3.285-7.491 5.754-10.65 7.57-20.287 11.717-24.986-3.332-24.986-3.332-4.852-11.315-11.784-11.047-11.784-11.047-9.2-1.953-.134-7.345.67-7.806.039-.024.055-.032.055-.032 10.575-5.25 16.191 3.23 16.191 3.23 5.305 7.341 12.398 6.152 18.684 2.529 4.97-2.867 9.433-7.259 12.083-10.165.933-8.444 3.651-15.372 6.664-20.161-23.469 10.476-48.156 14.261-48.286-32.421-.035-13.32 4.061-26.589 10.776-38.979-1.075-2.489-4.734-12.745.949-32.851 0 0 .768-.725 2.359-1.646 3.828-2.213 12.449-5.545 26.726-2.631 8.405-7.55 17.428-14.131 26.423-19.361 8.976-5.148 18.007-8.992 26.451-11.169 14.218-19.361 22.812-25.966 26.628-28.172 1.595-.91 2.359-1.075 2.359-1.075 5.805 13.473 2.217 27.916 1.13 31.657 6.794 4.592 10.925 13.107 10.961 26.427.008 2.044-.095 3.99-.181 5.951l32.919-57.024z"/><path d="M300.417 314.51c.138.059.272.158.41.228l.52-.902c-.308.221-.619.457-.93.674z"/></svg>